<svg xmlns="http://www.w3.org/2000/svg" viewBox="0 0 120 120" fill="none">
  <defs>
    <linearGradient id="bg" x1="0%" y1="0%" x2="100%" y2="100%">
      <stop offset="0%" stop-color="#1B4332"/>
      <stop offset="50%" stop-color="#2D6A4F"/>
      <stop offset="100%" stop-color="#4A90A4"/>
    </linearGradient>
    <linearGradient id="hill" x1="0%" y1="0%" x2="0%" y2="100%">
      <stop offset="0%" stop-color="#2D6A4F"/>
      <stop offset="100%" stop-color="#1B4332"/>
    </linearGradient>
  </defs>
  <rect width="120" height="120" rx="28" fill="url(#bg)"/>
  <!-- Hills -->
  <path d="M0 85 Q30 60 60 75 Q90 55 120 80 L120 120 L0 120 Z" fill="url(#hill)" opacity="0.6"/>
  <path d="M0 95 Q40 75 70 88 Q95 78 120 92 L120 120 L0 120 Z" fill="#1B4332" opacity="0.8"/>
  <!-- Tree (Meranti) -->
  <rect x="54" y="62" width="12" height="22" rx="2" fill="#8B5E3C"/>
  <circle cx="60" cy="50" r="18" fill="#2D6A4F"/>
  <circle cx="48" cy="56" r="12" fill="#1B4332" opacity="0.7"/>
  <circle cx="72" cy="56" r="12" fill="#1B4332" opacity="0.7"/>
  <!-- Speech bubble -->
  <rect x="72" y="22" width="32" height="24" rx="8" fill="#C9A227"/>
  <path d="M78 46 L84 52 L90 46" fill="#C9A227"/>
  <circle cx="82" cy="34" r="3" fill="#1B4332"/>
  <circle cx="90" cy="34" r="3" fill="#1B4332"/>
  <circle cx="98" cy="34" r="3" fill="#1B4332"/>
</svg>
